<?xml version="1.0" encoding="UTF-8"?>
<svg width="103px" height="121px" viewBox="0 0 103 121" version="1.1" xmlns="http://www.w3.org/2000/svg" xmlns:xlink="http://www.w3.org/1999/xlink">
    <!-- Generator: sketchtool 58 (101010) - https://sketch.com -->
    <title>4AA9E6FB-633D-42B6-B720-4D26D1F00B52</title>
    <desc>Created with sketchtool.</desc>
    <defs>
        <polygon id="path-1" points="0.376275014 0.0750750127 71.301325 0.0750750127 71.301325 71 0.376275014 71"></polygon>
        <polygon id="path-3" points="0.000619494409 0.398835077 102.69 0.398835077 102.69 52.2390597 0.000619494409 52.2390597"></polygon>
    </defs>
    <g id="Page-1" stroke="none" stroke-width="1" fill="none" fill-rule="evenodd">
        <g id="Profile-Page" transform="translate(-1154.000000, -125.000000)">
            <g id="Beginner" transform="translate(1154.000000, 124.000000)">
                <g id="Group-23" transform="translate(0.000000, 0.602000)">
                    <path d="M25.4575,76.9024 C18.8605,68.0234 16.0535,50.0754 16.0535,50.0754" id="Stroke-1" stroke="#000000" stroke-width="2"></path>
                    <path d="M82.6665,76.9024 C89.2635,68.0234 92.0705,50.0754 92.0705,50.0754" id="Stroke-3" stroke="#000000" stroke-width="2"></path>
                    <g id="Group-7" transform="translate(17.000000, 50.000000)">
                        <mask id="mask-2" fill="white">
                            <use xlink:href="#path-1"></use>
                        </mask>
                        <g id="Clip-6"></g>
                        <path d="M71.301325,35.5791 C71.2793,55.1641 55.3833,71.0231 35.7973,71.000125 C16.2123,70.9761 0.3533,55.0811 0.376275014,35.4961 C0.4003,15.9101 16.2953,0.0521 35.8803,0.0750750127 C55.4663,0.0981 71.3243,15.9931 71.301325,35.5791" id="Fill-5" fill="#EEEEEE" mask="url(#mask-2)"></path>
                    </g>
                    <path d="M37.4848,74.7988905 C31.2828,74.7909 26.2488,79.8139 26.2417905,86.0159 C26.2338,92.2179 31.2558,97.2509 37.4588,97.2579095 C43.6608,97.2659 48.6938,92.2439 48.7018073,86.0419 C48.7088,79.8399 43.6868,74.8059 37.4848,74.7988905" id="Fill-8" fill="#FFFFFF"></path>
                    <path d="M37.4848,74.7988905 C31.2828,74.7909 26.2488,79.8139 26.2417905,86.0159 C26.2338,92.2179 31.2558,97.2509 37.4588,97.2579095 C43.6608,97.2659 48.6938,92.2439 48.7018073,86.0419 C48.7088,79.8399 43.6868,74.8059 37.4848,74.7988905 Z" id="Stroke-10" stroke="#000000" stroke-width="2"></path>
                    <path d="M65.855,74.8320927 C59.653,74.8251 54.619,79.8471 54.6119905,86.0491 C54.604,92.2511 59.626,97.2841 65.829,97.2921073 C72.03,97.2991 77.064,92.2771 77.0710095,86.0751 C77.079,79.8731 72.057,74.8391 65.855,74.8320927" id="Fill-12" fill="#FFFFFF"></path>
                    <path d="M65.855,74.8320927 C59.653,74.8251 54.619,79.8471 54.6119905,86.0491 C54.604,92.2511 59.626,97.2841 65.829,97.2921073 C72.03,97.2991 77.064,92.2771 77.0710095,86.0751 C77.079,79.8731 72.057,74.8391 65.855,74.8320927 Z" id="Stroke-14" stroke="#000000" stroke-width="2"></path>
                    <polygon id="Fill-16" fill="#000000" points="54.6108 87.0098 48.2678 87.0018 48.2698 85.0798 54.6128 85.0878"></polygon>
                    <path d="M30.8677,65.1661 C30.8677,65.1661 33.9257,56.6621 41.7967,56.6710929 C41.7967,56.6710929 36.1497,61.5441 37.7537,66.2131 C37.7537,66.2131 38.8857,60.2101 43.9577,62.1411 C43.9577,62.1411 40.3827,66.4261 45.3217,67.6081" id="Fill-18" fill="#EEEEEE"></path>
                    <g id="Group-22">
                        <mask id="mask-4" fill="white">
                            <use xlink:href="#path-3"></use>
                        </mask>
                        <g id="Clip-21"></g>
                        <path d="M99.3569,50.7178 L3.5859,52.2390597 C2.5029,52.2568 1.6069,51.3368 1.5679,50.1658 L0.0019,2.6468 C-0.0391,1.3948 0.9099,0.3628 2.0679,0.3998 L100.7579,3.5118 C101.8629,3.5468 102.7269,4.5418 102.6889,5.7348 L101.3359,48.6208 C101.2999,49.7768 100.4279,50.7008 99.3569,50.7178" id="Fill-20" fill="#72DFD4" mask="url(#mask-4)"></path>
                    </g>
                </g>
                <text font-family="Poppins-Medium, Poppins" font-size="18" font-weight="400" fill="#FFFFFF">
                    <tspan x="8.5723" y="25.9819352">Beginner</tspan>
                </text>
            </g>
        </g>
    </g>
</svg>