<?xml version="1.0" encoding="UTF-8"?>
<svg width="51px" height="29px" viewBox="0 0 51 29" version="1.1" xmlns="http://www.w3.org/2000/svg" xmlns:xlink="http://www.w3.org/1999/xlink">
    <!-- Generator: sketchtool 58 (101010) - https://sketch.com -->
    <title>49314E31-128C-4010-8DFE-C3C09B66819A</title>
    <desc>Created with sketchtool.</desc>
    <g id="Page-1" stroke="none" stroke-width="1" fill="none" fill-rule="evenodd">
        <g id="Drill-Page" transform="translate(-145.000000, -13.000000)" fill="#72DFD4" fill-rule="nonzero">
            <g id="Group-26">
                <g id="Code-Drills" transform="translate(145.000000, 13.000000)">
                    <polygon id="Path" points="-2.66453526e-15 -1.77635684e-15 11.2097304 -1.77635684e-15 11.2097304 4.76660092 6.3773833 4.76660092 6.3773833 24.1617357 11.2097304 24.1617357 11.2097304 28.9283366 -2.66453526e-15 28.9283366"></polygon>
                    <path d="M36.0059172,16.8067061 C35.9401709,21.5075608 35.4142012,23.5456936 34.2307692,24.6962525 C33.3431953,25.5838264 32.1268902,26.0111769 29.7271532,26.0111769 L22.0348455,26.0111769 C19.6351085,26.0111769 18.3859303,25.5838264 17.4983563,24.6962525 C16.1505588,23.3813281 15,20.8500986 15,14.5055884 C15,8.16107824 16.1505588,5.62984878 17.4983563,4.31492439 C18.3859303,3.42735043 19.6351085,3 22.0348455,3 L29.7271532,3 C32.1268902,3 33.3431953,3.42735043 34.2307692,4.31492439 C35.3813281,5.46548323 35.9401709,7.47074293 36.0059172,12.1058514 L29.3984221,12.1058514 C29.2998028,9.24589086 29.0368179,8.81854043 28.8395792,8.62130178 C28.6423406,8.42406312 28.3136095,8.3583169 27.3274162,8.3583169 L24.4017094,8.3583169 C23.4155161,8.3583169 23.086785,8.42406312 22.8895464,8.62130178 C22.6594346,8.85141354 22.2649573,9.47600263 22.2649573,14.5055884 C22.2649573,19.5680473 22.6594346,20.1597633 22.8895464,20.3898751 C23.086785,20.5871137 23.4155161,20.65286 24.4017094,20.65286 L27.3274162,20.65286 C28.3136095,20.65286 28.6423406,20.5871137 28.8395792,20.3898751 C29.0368179,20.1926364 29.2998028,19.765286 29.3984221,16.8067061 L36.0059172,16.8067061 Z" id="Path"></path>
                    <polygon id="Path" points="50.2097304 -1.77635684e-15 50.2097304 28.9283366 39 28.9283366 39 24.1617357 43.8323471 24.1617357 43.8323471 4.76660092 39 4.76660092 39 -1.77635684e-15"></polygon>
                </g>
            </g>
        </g>
    </g>
</svg>