<?xml version="1.0" encoding="UTF-8"?>
<svg width="110px" height="89px" viewBox="0 0 110 89" version="1.1" xmlns="http://www.w3.org/2000/svg" xmlns:xlink="http://www.w3.org/1999/xlink">
    <!-- Generator: sketchtool 58 (101010) - https://sketch.com -->
    <title>C69CF60C-3AE0-4506-BF71-8EFB7824C61F</title>
    <desc>Created with sketchtool.</desc>
    <defs>
        <polygon id="path-1" points="0 88.8258 109.076 88.8258 109.076 -0.0002 0 -0.0002"></polygon>
    </defs>
    <g id="Page-1" stroke="none" stroke-width="1" fill="none" fill-rule="evenodd">
        <g id="Problem-Page---Solving-Mode-Congratulations" transform="translate(-1171.000000, -2150.000000)">
            <g id="Congratulations" transform="translate(1171.000000, 2150.000000)">
                <path d="M96.1956,59.2483 C103.5916,55.1243 108.1646,45.0153 108.1646,45.0153" id="Stroke-1" stroke="#000000" stroke-width="2"></path>
                <path d="M44.0677,52.1721 C44.0677,52.1721 38.0487,60.4401 29.9307,62.6231 C21.7537,64.8221 11.4267,60.7631 11.4267,60.7631" id="Stroke-3" stroke="#000000" stroke-width="2"></path>
                <path d="M97.9632,53.363 C97.9632,72.948 82.0862,88.825 62.5002,88.825 C42.9152,88.825 27.0372,72.948 27.0372,53.363 C27.0372,33.778 42.9152,17.901 62.5002,17.901 C82.0862,17.901 97.9632,33.778 97.9632,53.363" id="Fill-5" fill="#EEEEEE"></path>
                <path d="M46.1331,35.6423 C39.9311,35.6423 34.9041,40.6703 34.9041,46.8723 C34.9041,53.0743 39.9311,58.1023 46.1331,58.1023 C52.3351,58.1023 57.3621,53.0743 57.3621,46.8723 C57.3621,40.6703 52.3351,35.6423 46.1331,35.6423" id="Fill-7" fill="#FFFFFF"></path>
                <path d="M46.1331,35.6423 C39.9311,35.6423 34.9041,40.6703 34.9041,46.8723 C34.9041,53.0743 39.9311,58.1023 46.1331,58.1023 C52.3351,58.1023 57.3621,53.0743 57.3621,46.8723 C57.3621,40.6703 52.3351,35.6423 46.1331,35.6423 Z" id="Stroke-9" stroke="#000000" stroke-width="2"></path>
                <path d="M74.5033,35.6423 C68.3013,35.6423 63.2743,40.6703 63.2743,46.8723 C63.2743,53.0743 68.3013,58.1023 74.5033,58.1023 C80.7053,58.1023 85.7323,53.0743 85.7323,46.8723 C85.7323,40.6703 80.7053,35.6423 74.5033,35.6423" id="Fill-11" fill="#FFFFFF"></path>
                <path d="M74.5033,35.6423 C68.3013,35.6423 63.2743,40.6703 63.2743,46.8723 C63.2743,53.0743 68.3013,58.1023 74.5033,58.1023 C80.7053,58.1023 85.7323,53.0743 85.7323,46.8723 C85.7323,40.6703 80.7053,35.6423 74.5033,35.6423 Z" id="Stroke-13" stroke="#000000" stroke-width="2"></path>
                <mask id="mask-2" fill="white">
                    <use xlink:href="#path-1"></use>
                </mask>
                <g id="Clip-16"></g>
                <polygon id="Fill-15" fill="#000000" mask="url(#mask-2)" points="56.931 47.8328 63.274 47.8328 63.274 45.9118 56.931 45.9118"></polygon>
                <path d="M55.3148,19.7874 C55.3148,19.7874 58.3628,11.2794 66.2338,11.2794 C66.2338,11.2794 60.5928,16.1584 62.2018,20.8254 C62.2018,20.8254 63.3268,14.8214 68.4008,16.7454 C68.4008,16.7454 64.8318,21.0364 69.7718,22.2124" id="Fill-17" fill="#EEEEEE" mask="url(#mask-2)"></path>
                <path d="M26.5091,49.988 L13.2021,40.549 L5.4211,68.266 C5.4141,68.292 5.0431,69.974 6.0631,70.698 C7.0871,71.424 8.5601,70.508 8.5711,70.5 L32.1591,53.997 L28.4931,51.396" id="Fill-18" fill="#72DFD4" mask="url(#mask-2)"></path>
                <path d="M32.1595,53.9968 L34.9205,52.0928 C34.8125,52.0168 14.2595,37.4358 14.0905,37.3158 L13.2025,40.5488" id="Fill-19" fill="#EEEEEE" mask="url(#mask-2)"></path>
                <path d="M28.4564,38.617 C28.2614,38.242 28.4084,37.779 28.7844,37.584 C29.8854,37.013 32.4124,35.343 32.0884,32.182 C31.8964,30.307 32.3264,28.722 33.3654,27.471 C35.2554,25.197 38.4724,24.909 38.6074,24.897 C39.0294,24.863 39.3994,25.177 39.4354,25.598 C39.4694,26.02 39.1564,26.39 38.7354,26.425 C38.7084,26.428 36.0094,26.68 34.5384,28.458 C33.7764,29.38 33.4654,30.58 33.6134,32.026 C33.9084,34.911 32.4054,37.433 29.4894,38.945 C29.1154,39.139 28.6514,38.994 28.4564,38.617" id="Fill-20" fill="#72DFD4" mask="url(#mask-2)"></path>
                <path d="M47.2122,33.8259 C43.3412,33.8009 42.5692,36.4709 42.0072,38.4189 C41.4472,40.3579 41.1392,41.4269 38.7622,40.8659 C36.5552,40.3469 34.8202,40.5329 33.6042,41.4199 C32.6342,42.1269 32.3862,43.0219 32.3612,43.1209 C32.2262,43.6599 32.6912,44.1569 33.2332,44.0649 C33.5232,44.0149 33.7722,43.7999 33.8482,43.4959 C33.8532,43.4749 34.4202,41.4179 38.4102,42.3579 C42.0932,43.2259 42.8742,40.9419 43.4802,38.8449 C44.0452,36.8879 44.4912,35.3409 47.2022,35.3589 C47.6262,35.3619 47.9712,35.0209 47.9742196,34.5969 C47.9772,34.1739 47.6362,33.8289 47.2122,33.8259" id="Fill-21" fill="#72DFD4" mask="url(#mask-2)"></path>
                <path d="M26.2865,19.2122 C25.8885,19.3552 25.6805,19.7932 25.8225,20.1922 C27.2815,24.2742 22.8195,24.4342 21.5415,27.0352 C21.0075,28.1222 21.1965,29.3552 22.1215,30.8032 C24.2625,34.1562 22.6535,35.4132 22.5495,35.4902 C22.4725,35.5402 21.7815,36.0122 22.1375,36.5442 C22.6405,37.2952 23.4005,36.7642 23.4005,36.7642 C24.1895,36.2432 26.0165,34.0552 23.4135,29.9782 C22.0995,27.9202 22.9525,27.3142 24.6505,26.1072 C26.3045,24.9312 28.5685,23.3222 27.2655,19.6762 C27.1235,19.2772 26.6845,19.0702 26.2865,19.2122" id="Fill-22" fill="#72DFD4" mask="url(#mask-2)"></path>
                <path d="M36.1781,49.3001 C34.2721,47.9471 18.2451,36.5781 16.3081,35.2041 C15.5981,34.7001 14.6151,34.8671 14.1121,35.5771 C13.6081,36.2861 13.7761,37.2701 14.4851,37.7731 L34.3561,51.8691 C35.0651,52.3731 36.0481,52.2061 36.5521,51.4961 C37.0551,50.7861 36.8881,49.8031 36.1781,49.3001" id="Fill-23" fill="#CCCCCC" mask="url(#mask-2)"></path>
                <path d="M44.5345,4.5545 L41.0685,4.2335 L39.6925,1.0365 C39.5965,0.8125 39.2785,0.8125 39.1815,1.0365 L37.8055,4.2325 L34.3405,4.5545 C34.0975,4.5765 33.9995,4.8785 34.1825,5.0395 L36.7975,7.3365 L36.0315,10.7315 C35.9785,10.9695 36.2355,11.1565 36.4445,11.0315 L39.4375,9.2545 L42.4305,11.0315 C42.6385,11.1565 42.8955,10.9695 42.8435,10.7315 L42.0775,7.3365 L44.6915,5.0395 C44.8755,4.8785 44.7765,4.5765 44.5345,4.5545" id="Fill-24" fill="#72DFD4" mask="url(#mask-2)"></path>
                <path d="M25.4134,9.4949 L23.6804,9.3339 L22.9924,7.7359 C22.9434,7.6239 22.7854,7.6239 22.7364,7.7359 L22.0494,9.3339 L20.3154,9.4949 C20.1944,9.5059 20.1454,9.6579 20.2374,9.7379 L21.5444,10.8859 L21.1624,12.5839 C21.1354,12.7029 21.2644,12.7959 21.3684,12.7339 L22.8644,11.8459 L24.3604,12.7339 C24.4664,12.7959 24.5944,12.7029 24.5674,12.5839 L24.1844,10.8859 L25.4914,9.7379 C25.5834,9.6579 25.5344,9.5059 25.4134,9.4949" id="Fill-25" fill="#CCCCCC" mask="url(#mask-2)"></path>
                <path d="M10.5726,16.0383 L8.8406,15.8773 L8.1516,14.2793 C8.1036,14.1673 7.9446,14.1673 7.8966,14.2793 L7.2086,15.8773 L5.4756,16.0383 C5.3546,16.0493 5.3046,16.2003 5.3966,16.2813 L6.7046,17.4293 L6.3216,19.1263 C6.2956,19.2463 6.4236,19.3393 6.5276,19.2773 L8.0246,18.3883 L9.5206,19.2773 C9.6256,19.3393 9.7546,19.2463 9.7266,19.1263 L9.3436,17.4293 L10.6516,16.2813 C10.7436,16.2003 10.6946,16.0493 10.5726,16.0383" id="Fill-26" fill="#CCCCCC" mask="url(#mask-2)"></path>
                <path d="M5.223,42.8289 L3.491,42.6679 L2.802,41.0699 C2.754,40.9579 2.595,40.9579 2.547,41.0699 L1.859,42.6679 L0.126,42.8289 C0.005,42.8399 -0.045,42.9909 0.047,43.0719 L1.355,44.2199 L0.972,45.9179 C0.946,46.0369 1.074,46.1299 1.178,46.0679 L2.675,45.1789 L4.171,46.0679 C4.276,46.1299 4.405,46.0369 4.377,45.9179 L3.994,44.2199 L5.302,43.0719 C5.394,42.9909 5.345,42.8399 5.223,42.8289" id="Fill-27" fill="#72DFD4" mask="url(#mask-2)"></path>
                <path d="M12.0843,28.6316 C12.0843,29.1116 11.6953,29.5006 11.2153,29.5006 C10.7353,29.5006 10.3473,29.1116 10.3473,28.6316 C10.3473,28.1526 10.7353,27.7636 11.2153,27.7636 C11.6953,27.7636 12.0843,28.1526 12.0843,28.6316" id="Fill-28" fill="#EEEEEE" mask="url(#mask-2)"></path>
                <path d="M41.8929,18.7693 C41.8929,19.2483 41.5039,19.6373 41.0239,19.6373 C40.5439,19.6373 40.1559,19.2483 40.1559,18.7693 C40.1559,18.2893 40.5439,17.9003 41.0239,17.9003 C41.5039,17.9003 41.8929,18.2893 41.8929,18.7693" id="Fill-29" fill="#EEEEEE" mask="url(#mask-2)"></path>
                <path d="M27.4017,0.8684 C27.4017,1.3474 27.0127,1.7374 26.5337,1.7374 C26.0527,1.7374 25.6647,1.3474 25.6647,0.8684 C25.6647,0.3894 26.0527,0.0004 26.5337,0.0004 C27.0127,0.0004 27.4017,0.3894 27.4017,0.8684" id="Fill-30" fill="#EEEEEE" mask="url(#mask-2)"></path>
                <path d="M53.2621,11.0715 C53.2621,11.5505 52.8731,11.9395 52.3941,11.9395 C51.9131,11.9395 51.5251,11.5505 51.5251,11.0715 C51.5251,10.5915 51.9131,10.2025 52.3941,10.2025 C52.8731,10.2025 53.2621,10.5915 53.2621,11.0715" id="Fill-31" fill="#CCCCCC" mask="url(#mask-2)"></path>
            </g>
        </g>
    </g>
</svg>