<?xml version="1.0" encoding="UTF-8"?>
<svg width="47px" height="30px" viewBox="0 0 47 30" version="1.1" xmlns="http://www.w3.org/2000/svg" xmlns:xlink="http://www.w3.org/1999/xlink">
    <!-- Generator: sketchtool 58 (101010) - https://sketch.com -->
    <title>0B1DC4DB-5919-421D-BA9D-23BA321D5E04</title>
    <desc>Created with sketchtool.</desc>
    <g id="Page-1" stroke="none" stroke-width="1" fill="none" fill-rule="evenodd">
        <g id="Problem-Page---Reading-Mode" transform="translate(-591.000000, -123.000000)" fill-rule="nonzero">
            <g id="Crown" transform="translate(591.000000, 123.000000)">
                <path d="M38.3460366,25.4246855 L8.48323171,25.4246855 C8.02698649,25.4246855 7.60075262,25.1992426 7.34386912,24.8223133 C3.40379671,19.0443979 3.10153866,7.92980662 3.0786728,6.27989232 C3.07724369,6.21522485 3.07652918,6.14984277 3.07652918,6.08481805 C3.07652918,5.32417116 3.69247811,4.70715037 4.453125,4.70572125 L4.45598323,4.70572125 C5.21520101,4.70572125 5.8322218,5.31988372 5.83508003,6.07945884 C5.83508003,6.08874805 5.83543729,6.17020774 5.83865287,6.31454835 C5.96012762,10.2385432 9.1902868,13.3929593 13.1432213,13.3929593 C17.1729706,13.3929593 20.4513624,10.1145675 20.4513624,6.08481805 C20.4513624,5.3230993 21.0690978,4.70572125 21.8304593,4.70572125 L24.9984518,4.70572125 C25.7601705,4.70572125 26.3775486,5.3230993 26.3775486,6.08481805 C26.3775486,10.1145675 29.6562977,13.3929593 33.686047,13.3929593 C37.6425543,13.3929593 40.8748571,10.2328268 40.9909728,6.30383003 C40.9934737,6.1659203 40.9941883,6.08874805 40.9941883,6.0798161 C40.9970465,5.31988372 41.6137099,4.70572125 42.3732851,4.70572125 L42.375786,4.70572125 C43.1364329,4.70715037 43.7523819,5.32417116 43.7523819,6.08481805 C43.7523819,6.15020012 43.7516673,6.21522485 43.7505955,6.28024957 C43.7273724,7.92980662 43.4251143,19.0447551 39.4853992,24.8226705 C39.2285157,25.1992426 38.8019245,25.4246855 38.3460366,25.4246855 Z" id="Path" fill="#72DFD4"></path>
                <path d="M23.4146341,0 C20.9576267,0 18.9586509,1.99897582 18.9586509,4.45598323 C18.9586509,6.91299064 20.9576267,8.91160921 23.4146341,8.91160921 C25.8716416,8.91160921 27.8706174,6.91299064 27.8706174,4.45598323 C27.8706174,1.99897582 25.8716416,0 23.4146341,0 Z" id="Path" fill="#EEEEEE"></path>
                <path d="M4.45598323,3.43881 C1.99897582,3.43881 0,5.43778582 0,7.89479323 C0,10.3518007 1.99897582,12.3507765 4.45598323,12.3507765 C6.91299064,12.3507765 8.91160921,10.3518007 8.91160921,7.89479323 C8.91160921,5.43778582 6.91299064,3.43881 4.45598323,3.43881 Z" id="Path" fill="#EEEEEE"></path>
                <path d="M42.3732851,3.43881 C39.9162777,3.43881 37.9176591,5.43778582 37.9176591,7.89479323 C37.9176591,10.3514434 39.9162777,12.3504192 42.3732851,12.3504192 C44.8302925,12.3504192 46.8292683,10.3514434 46.8292683,7.89479323 C46.8292683,5.43778582 44.8302925,3.43881 42.3732851,3.43881 Z" id="Path" fill="#EEEEEE"></path>
                <path d="M38.3460366,29.9489091 L8.48323171,29.9489091 C7.72151296,29.9489091 7.10413491,29.331531 7.10413491,28.5698123 L7.10413491,24.4571742 L39.7251334,24.4571742 L39.7251334,28.5698123 C39.7251334,29.331531 39.1077553,29.9489091 38.3460366,29.9489091 L38.3460366,29.9489091 Z" id="Path" fill="#5ECBC0"></path>
            </g>
        </g>
    </g>
</svg>