<?xml version="1.0" encoding="UTF-8"?>
<svg width="122px" height="78px" viewBox="0 0 122 78" version="1.1" xmlns="http://www.w3.org/2000/svg" xmlns:xlink="http://www.w3.org/1999/xlink">
    <!-- Generator: sketchtool 58 (101010) - https://sketch.com -->
    <title>D2F9B4C0-39E0-4FDF-B9CC-0B7370A57E95</title>
    <desc>Created with sketchtool.</desc>
    <defs>
        <polygon id="path-1" points="0 77.5462 122.007 77.5462 122.007 0.0002 0 0.0002"></polygon>
    </defs>
    <g id="Page-1" stroke="none" stroke-width="1" fill="none" fill-rule="evenodd">
        <g id="Problem-Page---Solving-Mode-Error" transform="translate(-1162.000000, -2123.000000)">
            <g id="Error" transform="translate(1162.000000, 2123.000000)">
                <path d="M17.4959,66.4086 L31.9549,62.0196 C32.4839,61.8596 32.7819,61.3006 32.6219,60.7726 L23.5059,30.7396 C23.3449,30.2106 22.7869,29.9126 22.2579,30.0726 L0.7099,36.6136 C0.1819,36.7736 -0.1171,37.3326 0.0439,37.8606 L1.3719,42.2396 L2.2119,45.0036 L6.9919,60.7516 L7.8309,63.5156 L9.1599,67.8946 C9.3199,68.4226 9.8789,68.7206 10.4069,68.5606 L17.4959,66.4086 Z" id="Fill-1" fill="#EEEEEE"></path>
                <path d="M105.3289,47.9687 C112.7249,43.8447 117.2989,33.7357 117.2989,33.7357" id="Stroke-3" stroke="#000000" stroke-width="2"></path>
                <path d="M53.201,40.8925 C53.201,40.8925 47.182,49.1605 39.064,51.3435 C30.887,53.5425 20.56,49.4835 20.56,49.4835" id="Stroke-5" stroke="#000000" stroke-width="2"></path>
                <path d="M107.0965,42.0834 C107.0965,61.6684 91.2195,77.5454 71.6335,77.5454 C52.0485,77.5454 36.1705,61.6684 36.1705,42.0834 C36.1705,22.4984 52.0485,6.6214 71.6335,6.6214 C91.2195,6.6214 107.0965,22.4984 107.0965,42.0834" id="Fill-7" fill="#EEEEEE"></path>
                <path d="M44.2664,24.3627 C38.0644,24.3627 33.0374,29.3907 33.0374,35.5927 C33.0374,41.7947 38.0644,46.8227 44.2664,46.8227 C50.4684,46.8227 55.4964,41.7947 55.4964,35.5927 C55.4964,29.3907 50.4684,24.3627 44.2664,24.3627" id="Fill-9" fill="#FFFFFF"></path>
                <path d="M44.2664,24.3627 C38.0644,24.3627 33.0374,29.3907 33.0374,35.5927 C33.0374,41.7947 38.0644,46.8227 44.2664,46.8227 C50.4684,46.8227 55.4964,41.7947 55.4964,35.5927 C55.4964,29.3907 50.4684,24.3627 44.2664,24.3627 Z" id="Stroke-11" stroke="#000000" stroke-width="2"></path>
                <path d="M72.6366,24.3627 C66.4346,24.3627 61.4076,29.3907 61.4076,35.5927 C61.4076,41.7947 66.4346,46.8227 72.6366,46.8227 C78.8386,46.8227 83.8656,41.7947 83.8656,35.5927 C83.8656,29.3907 78.8386,24.3627 72.6366,24.3627" id="Fill-13" fill="#FFFFFF"></path>
                <path d="M72.6366,24.3627 C66.4346,24.3627 61.4076,29.3907 61.4076,35.5927 C61.4076,41.7947 66.4346,46.8227 72.6366,46.8227 C78.8386,46.8227 83.8656,41.7947 83.8656,35.5927 C83.8656,29.3907 78.8386,24.3627 72.6366,24.3627 Z" id="Stroke-15" stroke="#000000" stroke-width="2"></path>
                <mask id="mask-2" fill="white">
                    <use xlink:href="#path-1"></use>
                </mask>
                <g id="Clip-18"></g>
                <polygon id="Fill-17" fill="#000000" mask="url(#mask-2)" points="55.064 36.5532 61.407 36.5532 61.407 34.6322 55.064 34.6322"></polygon>
                <path d="M64.4481,8.5078 C64.4481,8.5078 67.4971,-0.0002 75.3681,-0.0002 C75.3681,-0.0002 69.7261,4.8788 71.3351,9.5458 C71.3351,9.5458 72.4601,3.5418 77.5341,5.4658 C77.5341,5.4658 73.9651,9.7568 78.9051,10.9328" id="Fill-19" fill="#EEEEEE" mask="url(#mask-2)"></path>
                <path d="M17.3114,65.312 L32.0634,62.042 C32.6024,61.923 32.9434,61.389 32.8234,60.85 L26.0324,30.207 C25.9134,29.667 25.3784,29.327 24.8394,29.447 L2.8544,34.319 C2.3144,34.439 1.9744,34.973 2.0934,35.512 L3.0834,39.979 L3.7084,42.799 L7.2704,58.868 L7.8954,61.688 L8.8854,66.155 C9.0044,66.694 9.5394,67.034 10.0784,66.915 L17.3114,65.312 Z" id="Fill-20" fill="#72DFD4" mask="url(#mask-2)"></path>
                <path d="M21.784,41.1914 L11.257,43.5934 C10.803,43.6974 10.349,43.4124 10.246,42.9584 C10.142,42.5034 10.427,42.0504 10.882,41.9474 L21.408,39.5454 C21.863,39.4414 22.315,39.7254 22.419,40.1804 C22.523,40.6354 22.238,41.0874 21.784,41.1914" id="Fill-21" fill="#EEEEEE" mask="url(#mask-2)"></path>
                <path d="M22.7811,44.8745 L12.2541,47.2765 C11.8001,47.3805 11.3461,47.0955 11.2431,46.6415 C11.1391,46.1865 11.4241,45.7335 11.8781,45.6295 L22.4051,43.2285 C22.8601,43.1245 23.3121,43.4085 23.4161,43.8635 C23.5191,44.3175 23.2351,44.7705 22.7811,44.8745" id="Fill-22" fill="#EEEEEE" mask="url(#mask-2)"></path>
                <path d="M23.7079,48.9389 L13.1819,51.3409 C12.7269,51.4449 12.2739,51.1599 12.1709,50.7059 C12.0659,50.2509 12.3519,49.7979 12.8059,49.6949 L23.3329,47.2929 C23.7869,47.1889 24.2399,47.4729 24.3439,47.9279 C24.4469,48.3819 24.1629,48.8349 23.7079,48.9389" id="Fill-23" fill="#EEEEEE" mask="url(#mask-2)"></path>
                <path d="M119.7293,48.8037 C121.2773,48.4797 122.2693,46.9617 121.9463,45.4137 L121.7993,44.7127 L116.1923,45.8857 L116.3393,46.5867 C116.6633,48.1347 118.1803,49.1277 119.7293,48.8037" id="Fill-24" fill="#EEEEEE" mask="url(#mask-2)"></path>
                <polygon id="Fill-25" fill="#72DFD4" mask="url(#mask-2)" points="118.5565 43.1967 121.3595 42.6107 117.4015 23.6877 114.5985 24.2747 111.7945 24.8607 115.7525 43.7827"></polygon>
                <polygon id="Fill-26" fill="#EEEEEE" mask="url(#mask-2)" points="117.4012 23.6879 115.4152 21.1799 112.6092 21.7669 111.7952 24.8609 114.5982 24.2739"></polygon>
                <polygon id="Fill-27" fill="#CCCCCC" mask="url(#mask-2)" points="113.4256 18.6674 112.6096 21.7674 115.4146 21.1804"></polygon>
            </g>
        </g>
    </g>
</svg>