<?xml version="1.0" encoding="UTF-8"?>
<svg width="130px" height="89px" viewBox="0 0 130 89" version="1.1" xmlns="http://www.w3.org/2000/svg" xmlns:xlink="http://www.w3.org/1999/xlink">
    <!-- Generator: sketchtool 58 (101010) - https://sketch.com -->
    <title>37561D14-5717-42D0-927F-A5BC3D7BBF07</title>
    <desc>Created with sketchtool.</desc>
    <defs>
        <polygon id="path-1" points="0 88.924 129.297 88.924 129.297 0 0 0"></polygon>
    </defs>
    <g id="Page-1" stroke="none" stroke-width="1" fill="none" fill-rule="evenodd">
        <g id="Problem-Page---Judging" transform="translate(-1150.000000, -2156.000000)">
            <g id="Group-37" transform="translate(1150.000000, 2156.000000)">
                <path d="M85.621,65.1575 C94.009,63.9945 101.935,56.2315 101.935,56.2315" id="Stroke-1" stroke="#000000" stroke-width="2"></path>
                <path d="M35.2275,52.8714 C35.2275,52.8714 24.5925,51.2874 16.9715,55.7624 C9.2925,60.2704 4.7225,71.0034 4.7225,71.0034" id="Stroke-3" stroke="#000000" stroke-width="2"></path>
                <path d="M85.621,53.4612 C85.621,73.0462 69.744,88.9232 50.158,88.9232 C30.573,88.9232 14.695,73.0462 14.695,53.4612 C14.695,33.8762 30.573,17.9992 50.158,17.9992 C69.744,17.9992 85.621,33.8762 85.621,53.4612" id="Fill-5" fill="#EEEEEE"></path>
                <path d="M34.4277,41.0003 C28.2257,41.0003 23.1987,46.0283 23.1987,52.2303 C23.1987,58.4323 28.2257,63.4593 34.4277,63.4593 C40.6297,63.4593 45.6567,58.4323 45.6567,52.2303 C45.6567,46.0283 40.6297,41.0003 34.4277,41.0003" id="Fill-7" fill="#FFFFFF"></path>
                <path d="M34.4277,41.0003 C28.2257,41.0003 23.1987,46.0283 23.1987,52.2303 C23.1987,58.4323 28.2257,63.4593 34.4277,63.4593 C40.6297,63.4593 45.6567,58.4323 45.6567,52.2303 C45.6567,46.0283 40.6297,41.0003 34.4277,41.0003 Z" id="Stroke-9" stroke="#000000" stroke-width="2"></path>
                <path d="M62.7978,41.0003 C56.5958,41.0003 51.5678,46.0283 51.5678,52.2303 C51.5678,58.4323 56.5958,63.4593 62.7978,63.4593 C68.9998,63.4593 74.0268,58.4323 74.0268,52.2303 C74.0268,46.0283 68.9998,41.0003 62.7978,41.0003" id="Fill-11" fill="#FFFFFF"></path>
                <path d="M62.7978,41.0003 C56.5958,41.0003 51.5678,46.0283 51.5678,52.2303 C51.5678,58.4323 56.5958,63.4593 62.7978,63.4593 C68.9998,63.4593 74.0268,58.4323 74.0268,52.2303 C74.0268,46.0283 68.9998,41.0003 62.7978,41.0003 Z" id="Stroke-13" stroke="#000000" stroke-width="2"></path>
                <mask id="mask-2" fill="white">
                    <use xlink:href="#path-1"></use>
                </mask>
                <g id="Clip-16"></g>
                <polygon id="Fill-15" fill="#000000" mask="url(#mask-2)" points="45.225 53.191 51.567 53.191 51.567 51.27 45.225 51.27"></polygon>
                <path d="M43.9726,19.8856 C43.9726,19.8856 47.0206,11.3776 54.8916,11.3776 C54.8916,11.3776 49.2506,16.2566 50.8596,20.9236 C50.8596,20.9236 51.9846,14.9196 57.0586,16.8436 C57.0586,16.8436 53.4896,21.1346 58.4296,22.3106" id="Fill-17" fill="#EEEEEE" mask="url(#mask-2)"></path>
                <path d="M76.538,17.6278 C76.538,24.9488 65.358,30.8838 51.567,30.8838 C37.777,30.8838 26.598,24.9488 26.598,17.6278 C26.598,10.3068 37.777,4.3718 51.567,4.3718 C65.358,4.3718 76.538,10.3068 76.538,17.6278" id="Fill-18" fill="#B3B3B3" mask="url(#mask-2)"></path>
                <path d="M76.538,13.2562 C76.538,20.5772 65.358,26.5122 51.567,26.5122 C37.777,26.5122 26.598,20.5772 26.598,13.2562 C26.598,5.9352 37.777,0.0002 51.567,0.0002 C65.358,0.0002 76.538,5.9352 76.538,13.2562" id="Fill-19" fill="#CCCCCC" mask="url(#mask-2)"></path>
                <path d="M30.3866,30.4573 L19.0836,29.8333 C15.2936,29.6243 12.3636,26.3513 12.5736,22.5613 L12.6126,21.8523 C12.8216,18.0613 16.0936,15.1313 19.8846,15.3403 L31.1866,15.9643 C34.9766,16.1743 37.9076,19.4463 37.6986,23.2373 L37.6586,23.9453 C37.4486,27.7363 34.1766,30.6663 30.3866,30.4573" id="Fill-20" fill="#CCCCCC" mask="url(#mask-2)"></path>
                <path d="M34.5898,22.5872 C35.1698,25.3212 33.4248,28.0082 30.6908,28.5892 C27.9558,29.1702 25.2688,27.4232 24.6878,24.6892 C24.1078,21.9552 25.8538,19.2682 28.5878,18.6872 C31.3218,18.1072 34.0098,19.8532 34.5898,22.5872" id="Fill-21" fill="#EEEEEE" mask="url(#mask-2)"></path>
                <path d="M22.4247,42.5316 L11.1227,41.9076 C7.3327,41.6986 4.4027,38.4256 4.6117,34.6356 L4.6517,33.9266 C4.8607,30.1356 8.1327,27.2056 11.9237,27.4156 L23.2257,28.0396 C27.0157,28.2486 29.9457,31.5206 29.7367,35.3116 L29.6967,36.0196 C29.4877,39.8106 26.2157,42.7406 22.4247,42.5316" id="Fill-22" fill="#CCCCCC" mask="url(#mask-2)"></path>
                <path d="M27.5761,34.0809 C28.1571,36.8149 26.4111,39.5029 23.6771,40.0829 C20.9421,40.6639 18.2551,38.9179 17.6751,36.1839 C17.0941,33.4489 18.8401,30.7619 21.5741,30.1809 C24.3081,29.6009 26.9961,31.3469 27.5761,34.0809" id="Fill-23" fill="#EEEEEE" mask="url(#mask-2)"></path>
                <path d="M17.8241,55.7298 L6.5221,55.1058 C2.7311,54.8968 -0.1979,51.6248 0.0111,47.8338 L0.0501,47.1258 C0.2591,43.3348 3.5311,40.4048 7.3221,40.6138 L18.6241,41.2378 C22.4151,41.4468 25.3451,44.7198 25.1361,48.5098 L25.0961,49.2188 C24.8871,53.0088 21.6141,55.9388 17.8241,55.7298" id="Fill-24" fill="#CCCCCC" mask="url(#mask-2)"></path>
                <path d="M22.4648,47.3934 C23.0458,50.1274 21.2998,52.8154 18.5658,53.3954 C15.8308,53.9764 13.1438,52.2304 12.5638,49.4964 C11.9828,46.7614 13.7288,44.0744 16.4628,43.4934 C19.1968,42.9134 21.8848,44.6594 22.4648,47.3934" id="Fill-25" fill="#EEEEEE" mask="url(#mask-2)"></path>
                <path d="M69.5234,30.6624 L80.8254,30.0384 C84.6164,29.8294 87.5454,26.5564 87.3364,22.7664 L87.2974,22.0574 C87.0884,18.2664 83.8164,15.3364 80.0254,15.5464 L68.7234,16.1704 C64.9324,16.3794 62.0024,19.6524 62.2114,23.4424 L62.2514,24.1504 C62.4604,27.9414 65.7334,30.8714 69.5234,30.6624" id="Fill-26" fill="#CCCCCC" mask="url(#mask-2)"></path>
                <path d="M65.3202,22.7923 C64.7392,25.5263 66.4852,28.2143 69.2192,28.7943 C71.9542,29.3753 74.6412,27.6283 75.2212,24.8943 C75.8022,22.1603 74.0562,19.4733 71.3222,18.8923 C68.5882,18.3123 65.9002,20.0583 65.3202,22.7923" id="Fill-27" fill="#EEEEEE" mask="url(#mask-2)"></path>
                <path d="M77.4843,42.7366 L88.7863,42.1126 C92.5773,41.9036 95.5063,38.6316 95.2973,34.8406 L95.2583,34.1326 C95.0493,30.3416 91.7773,27.4116 87.9863,27.6206 L76.6843,28.2446 C72.8933,28.4536 69.9633,31.7266 70.1723,35.5166 L70.2123,36.2256 C70.4223,40.0156 73.6943,42.9456 77.4843,42.7366" id="Fill-28" fill="#CCCCCC" mask="url(#mask-2)"></path>
                <path d="M72.3329,34.2864 C71.7529,37.0204 73.4989,39.7074 76.2329,40.2884 C78.9679,40.8694 81.6539,39.1224 82.2349,36.3884 C82.8149,33.6544 81.0689,30.9674 78.3349,30.3864 C75.6009,29.8064 72.9139,31.5524 72.3329,34.2864" id="Fill-29" fill="#EEEEEE" mask="url(#mask-2)"></path>
                <path d="M82.0859,55.9354 L93.3879,55.3114 C97.1789,55.1024 100.1079,51.8294 99.8989,48.0394 L99.8599,47.3304 C99.6499,43.5394 96.3779,40.6094 92.5879,40.8194 L81.2859,41.4434 C77.4949,41.6524 74.5649,44.9254 74.7739,48.7154 L74.8139,49.4234 C75.0229,53.2144 78.2949,56.1444 82.0859,55.9354" id="Fill-30" fill="#CCCCCC" mask="url(#mask-2)"></path>
                <path d="M77.4443,47.5989 C76.8643,50.3329 78.6103,53.0199 81.3443,53.6009 C84.0793,54.1819 86.7653,52.4349 87.3463,49.7009 C87.9263,46.9669 86.1803,44.2799 83.4463,43.6989 C80.7123,43.1189 78.0253,44.8649 77.4443,47.5989" id="Fill-31" fill="#EEEEEE" mask="url(#mask-2)"></path>
                <path d="M99.5556,55.8709 C98.8206,58.0339 98.8506,59.7739 99.6416,61.0409 C100.3696,62.2069 101.5046,62.5929 101.9926,62.7579 C103.3146,63.2079 104.3886,63.1099 105.2546,62.6829 C106.7066,61.9669 107.5866,60.3259 108.1136,58.7749 C108.7486,56.9019 112.1126,45.1789 114.0206,37.5479 C114.2226,36.7349 113.7326,35.9149 112.9206,35.7099 C112.1526,35.5199 111.3896,35.9639 111.1386,36.6999 L110.5896,36.5139 C110.8376,35.7749 110.5036,34.9609 109.7766,34.6449 C109.0126,34.3099 108.1186,34.6609 107.7846,35.4309 C104.6446,42.6799 100.1836,54.0149 99.5556,55.8709" id="Fill-32" fill="#72DFD4" mask="url(#mask-2)"></path>
                <path d="M106.6523,22.1365 C107.5783,19.4095 123.9323,24.9595 123.0063,27.6865 L119.5403,37.9085 C118.6143,40.6355 102.2593,35.0855 103.1853,32.3585 L106.6523,22.1365 Z" id="Fill-33" fill="#CCCCCC" mask="url(#mask-2)"></path>
                <path d="M119.4902,38.054 L123.0582,27.539 C123.4142,26.491 124.5512,25.93 125.5982,26.286 L127.9362,27.079 C128.9852,27.435 129.5462,28.572 129.1892,29.62 L125.6222,40.135 C125.2652,41.183 124.1302,41.744 123.0812,41.388 L120.7432,40.595 C119.6962,40.241 119.1352,39.103 119.4902,38.054" id="Fill-34" fill="#72DFD4" mask="url(#mask-2)"></path>
                <path d="M97.0038,30.4241 L100.5718,19.9091 C100.9278,18.8611 102.0648,18.3001 103.1128,18.6561 L105.4498,19.4491 C106.4988,19.8051 107.0598,20.9411 106.7038,21.9901 L103.1338,32.5061 C102.7778,33.5541 101.6418,34.1141 100.5928,33.7581 L98.2558,32.9661 C97.2068,32.6101 96.6468,31.4731 97.0038,30.4241" id="Fill-35" fill="#72DFD4" mask="url(#mask-2)"></path>
                <path d="M106.414,57.7327 C106.414,58.2127 106.025,58.6017 105.546,58.6017 C105.066,58.6017 104.677,58.2127 104.677,57.7327 C104.677,57.2537 105.066,56.8647 105.546,56.8647 C106.025,56.8647 106.414,57.2537 106.414,57.7327" id="Fill-36" fill="#EEEEEE" mask="url(#mask-2)"></path>
            </g>
        </g>
    </g>
</svg>