<?xml version="1.0" encoding="UTF-8"?>
<svg width="71px" height="110px" viewBox="0 0 71 110" version="1.1" xmlns="http://www.w3.org/2000/svg" xmlns:xlink="http://www.w3.org/1999/xlink">
    <!-- Generator: sketchtool 58 (101010) - https://sketch.com -->
    <title>AC38516C-6FFB-4D46-AC1D-0DFC51E73942</title>
    <desc>Created with sketchtool.</desc>
    <defs>
        <polygon id="path-1" points="0.0002 0.0746 70.925 0.0746 70.925 70.9996 0.0002 70.9996"></polygon>
    </defs>
    <g id="Page-1" stroke="none" stroke-width="1" fill="none" fill-rule="evenodd">
        <g id="Problem-Page---Premium" transform="translate(-619.000000, -423.000000)">
            <g id="Premium" transform="translate(619.000000, 423.000000)">
                <g id="Group-3" transform="translate(0.000000, 32.111000)">
                    <mask id="mask-2" fill="white">
                        <use xlink:href="#path-1"></use>
                    </mask>
                    <g id="Clip-2"></g>
                    <path d="M70.9252,35.5376 C70.9252,55.1226 55.0482,70.9996 35.4622,70.9996 C15.8772,70.9996 0.0002,55.1226 0.0002,35.5376 C0.0002,15.9526 15.8772,0.0746 35.4622,0.0746 C55.0482,0.0746 70.9252,15.9526 70.9252,35.5376" id="Fill-1" fill="#EEEEEE" mask="url(#mask-2)"></path>
                </g>
                <path d="M21.2777,54.2267 C15.0757,54.2267 10.0487,59.2547 10.0487,65.4557 C10.0487,71.6587 15.0757,76.6857 21.2777,76.6857 C27.4797,76.6857 32.5077,71.6587 32.5077,65.4557 C32.5077,59.2547 27.4797,54.2267 21.2777,54.2267" id="Fill-4" fill="#FFFFFF"></path>
                <path d="M21.2777,54.2267 C15.0757,54.2267 10.0487,59.2547 10.0487,65.4557 C10.0487,71.6587 15.0757,76.6857 21.2777,76.6857 C27.4797,76.6857 32.5077,71.6587 32.5077,65.4557 C32.5077,59.2547 27.4797,54.2267 21.2777,54.2267 Z" id="Stroke-6" stroke="#000000" stroke-width="2"></path>
                <path d="M49.6478,54.2267 C43.4458,54.2267 38.4178,59.2547 38.4178,65.4557 C38.4178,71.6587 43.4458,76.6857 49.6478,76.6857 C55.8498,76.6857 60.8768,71.6587 60.8768,65.4557 C60.8768,59.2547 55.8498,54.2267 49.6478,54.2267" id="Fill-8" fill="#FFFFFF"></path>
                <path d="M49.6478,54.2267 C43.4458,54.2267 38.4178,59.2547 38.4178,65.4557 C38.4178,71.6587 43.4458,76.6857 49.6478,76.6857 C55.8498,76.6857 60.8768,71.6587 60.8768,65.4557 C60.8768,59.2547 55.8498,54.2267 49.6478,54.2267 Z" id="Stroke-10" stroke="#000000" stroke-width="2"></path>
                <polygon id="Fill-12" fill="#000000" points="32.075 66.417 38.417 66.417 38.417 64.496 32.075 64.496"></polygon>
                <path d="M27.5902,23.0724 C27.5902,23.0724 30.6382,14.5644 38.5092,14.5644 C38.5092,14.5644 32.8682,19.4444 34.4772,24.1114 C34.4772,24.1114 35.6022,18.1064 40.6762,20.0314 C40.6762,20.0314 37.1072,24.3214 42.0472,25.4974" id="Fill-14" fill="#EEEEEE"></path>
                <path d="M56.0355,34.3654 L15.4115,34.8095199 C14.7905,34.8164 14.2075,34.5164 13.8515,34.0074 C8.4065,26.2054 7.8295,11.0904 7.7735,8.8454 C7.7705,8.7584 7.7685,8.6694 7.76741037,8.5804 C7.7575,7.5464 8.5855,6.6974 9.6205,6.6844 L9.6245,6.6834 C10.6565,6.6724 11.5055,7.4994 11.5205,8.5324 C11.5205,8.5454 11.5225,8.6564 11.5285,8.8524 C11.7525,14.1884 16.1935,18.4314 21.5715,18.3724 C27.0535,18.3124 31.4645,13.8034 31.4045,8.3224 C31.3925,7.2854 32.2235,6.4364 33.2605,6.4254 L37.5695,6.3784 C38.6055,6.3664 39.4555,7.1984 39.4665,8.2344 C39.5265,13.7164 44.0355,18.1274 49.5165,18.0674 C54.8995,18.0084 59.2495,13.6614 59.3485,8.3144 C59.3505,8.1274 59.3505,8.0224 59.3495,8.0104 C59.3435,6.9754 60.1735,6.1314 61.2065,6.11932749 L61.2095,6.11932749 C62.2445,6.1104 63.0915,6.9404 63.1025,7.9754 C63.10325,8.0644 63.10325,8.1534 63.1025,8.2414 C63.0965,10.4864 62.8495,25.6114 57.5765,33.5294 C57.2325,34.0454 56.6555,34.3584 56.0355,34.3654" id="Fill-15" fill="#72DFD4"></path>
                <path d="M35.3451,0.0006 C32.0021,0.0366 29.3131,2.7866 29.3501,6.1286 C29.3861,9.4706 32.1351,12.1606 35.4781,12.1236 C38.8201,12.0866 41.5101,9.3386 41.4731,5.9956 C41.4371,2.6536 38.6881,-0.0364 35.3451,0.0006" id="Fill-16" fill="#EEEEEE"></path>
                <path d="M9.6058,4.9606 C6.2628,4.9976 3.5738,7.7466 3.6098,11.0886 C3.6468,14.4306 6.3958,17.1206 9.7378,17.0846 C13.0808,17.0476 15.7698,14.2986 15.7328,10.9566 C15.6968,7.6136 12.9478,4.9236 9.6058,4.9606" id="Fill-17" fill="#EEEEEE"></path>
                <path d="M61.1869,4.3966 C57.8449,4.4326 55.1559,7.1826 55.1919,10.5246 C55.2289,13.8666 57.9769,16.5566 61.3199,16.5196 C64.6629,16.4826 67.3519,13.7336 67.3149,10.3916 C67.2789,7.0496 64.5299,4.3596 61.1869,4.3966" id="Fill-18" fill="#EEEEEE"></path>
                <path d="M56.1029,40.5202 L15.4779,40.9642 C14.4419,40.9762 13.5929,40.1452 13.5819,39.1082 L13.5209,33.5142 L57.8979,33.0292 L57.9580283,38.6242 C57.9699,39.6602 57.1389,40.5092 56.1029,40.5202" id="Fill-19" fill="#5ECBC0"></path>
                <path d="M25.2562,24.7448 L23.0742,24.5428 L22.2082,22.5298 C22.1482,22.3898 21.9472,22.3898 21.8872,22.5298 L21.0212,24.5428 L18.8392,24.7448 C18.6862,24.7588 18.6242,24.9488 18.7392,25.0508 L20.3862,26.4958 L19.9032,28.6338 C19.8702,28.7838 20.0312,28.9008 20.1632,28.8228 L22.0482,27.7038 L23.9322,28.8228 C24.0642,28.9008 24.2252,28.7838 24.1922,28.6338 L23.7092,26.4958 L25.3562,25.0508 C25.4712,24.9488 25.4092,24.7588 25.2562,24.7448" id="Fill-20" fill="#EEEEEE"></path>
                <path d="M38.932,24.7448 L36.75,24.5428 L35.883,22.5298 C35.823,22.3898 35.623,22.3898 35.563,22.5298 L34.696,24.5428 L32.514,24.7448 C32.362,24.7588 32.299,24.9488 32.414,25.0508 L34.061,26.4958 L33.579,28.6338 C33.545,28.7838 33.707,28.9008 33.839,28.8228 L35.723,27.7038 L37.607,28.8228 C37.739,28.9008 37.901,28.7838 37.867,28.6338 L37.385,26.4958 L39.032,25.0508 C39.147,24.9488 39.084,24.7588 38.932,24.7448" id="Fill-21" fill="#EEEEEE"></path>
                <path d="M52.6068,24.7448 L50.4248,24.5428 L49.5588,22.5298 C49.4988,22.3898 49.2978,22.3898 49.2378,22.5298 L48.3718,24.5428 L46.1898,24.7448 C46.0368,24.7588 45.9748,24.9488 46.0898,25.0508 L47.7368,26.4958 L47.2538,28.6338 C47.2208,28.7838 47.3818,28.9008 47.5138,28.8228 L49.3988,27.7038 L51.2828,28.8228 C51.4148,28.9008 51.5758,28.7838 51.5428,28.6338 L51.0598,26.4958 L52.7068,25.0508 C52.8218,24.9488 52.7598,24.7588 52.6068,24.7448" id="Fill-22" fill="#EEEEEE"></path>
                <path d="M46.8588,98.5358 C46.7998,98.3408 46.6308,98.1988 46.4288,98.1728 C45.1438,98.0068 42.9528,97.9548 40.5688,99.0778 C39.3498,99.6528 38.4058,100.3818 37.7218,101.0148 L33.2038,101.0148 C32.5198,100.3818 31.5758,99.6528 30.3558,99.0778 C27.9728,97.9548 25.7818,98.0068 24.4968,98.1728 C24.2938,98.1988 24.1258,98.3408 24.0668,98.5358 C23.9788,98.8278 23.8898,99.1538 23.8048,99.5128 C23.5518,100.5798 23.3388,101.9278 23.3326463,103.4898 C23.3238,105.6478 23.7118,107.4088 24.0678,108.5938 C24.1258,108.7878 24.2918,108.9298 24.4918,108.9568 C25.7778,109.1298 28.0008,109.1958 30.4078,108.0418 C31.6038,107.4678 32.5308,106.7438 33.2038,106.1128 L33.5068,106.1128 L37.4188,106.1128 L37.7218,106.1128 C38.3948,106.7438 39.3218,107.4678 40.5178,108.0418 C42.9248,109.1958 45.1468,109.1298 46.4328,108.9568 C46.6338,108.9298 46.7998,108.7868 46.8578,108.5938 C47.2128,107.4088 47.6018,105.6478 47.5929533,103.4898 C47.5848,101.4038 47.2078,99.6998 46.8588,98.5358" id="Fill-23" fill="#72DFD4"></path>
                <polygon id="Fill-24" fill="#5ECBC0" points="37.599 105.9997 36.847 106.1127 33.203 106.1127 33.203 101.1577 37.722 101.1577"></polygon>
                <path d="M33.2025,101.0143 L33.2025,101.7973 L33.2375,101.7973 C35.2305,101.7973 36.8475,103.4133 36.8475,105.4073 L36.8475,106.1133 L37.7225,106.1133 L37.7225,101.0143 L33.2025,101.0143 Z" id="Fill-25" fill="#5ECBC0"></path>
            </g>
        </g>
    </g>
</svg>